<?xml version="1.0" encoding="UTF-8"?>
<svg xmlns="http://www.w3.org/2000/svg" width="56.004" height="56" viewBox="0 0 56.004 56"><path id="arqcog-2" d="M955.774,274.2a6.57,6.57,0,0,1-6.52-6l-.091-1.145-8.1-2.5-.689,1.123a6.54,6.54,0,0,1-11.136.021,6.56,6.56,0,0,1,1.368-8.441l.8-.665-2.15-9.491-1.217-.12a6.655,6.655,0,0,1-2.59-.822,6.528,6.528,0,0,1-2.443-8.9,6.556,6.556,0,0,1,5.7-3.3,6.456,6.456,0,0,1,2.458.483l1,.41,6.867-6.366-.488-1.107a6.53,6.53,0,0,1,5.978-9.176,6.575,6.575,0,0,1,6.518,6.016l.092,1.145,8.087,2.5.689-1.122a6.535,6.535,0,1,1,9.289,8.786l-.947.652,2.095,9.218,1.343.013a6.507,6.507,0,0,1,5.609,9.721,6.561,6.561,0,0,1-5.7,3.31h0a6.4,6.4,0,0,1-2.987-.732l-1.061-.55-6.68,6.192.634,1.159a6.535,6.535,0,0,1-5.725,9.691Zm0-11.461a4.95,4.95,0,1,0,4.952,4.95A4.957,4.957,0,0,0,955.774,262.739ZM934.8,257.325a4.952,4.952,0,1,0,4.221,2.345A4.93,4.93,0,0,0,934.8,257.325Zm-.022-1.58a6.514,6.514,0,0,1,6.549,6.1L941.4,263l8.061,2.5.684-1.145a6.591,6.591,0,0,1,5.624-3.206,6.448,6.448,0,0,1,2.844.65l1.049.519,6.734-6.251-.593-1.145a6.525,6.525,0,0,1,.115-6.229,6.618,6.618,0,0,1,1.966-2.134l.944-.652-2.093-9.222-1.336-.018a6.521,6.521,0,0,1-6.429-6.1l-.077-1.165-8.074-2.5-.684,1.148a6.534,6.534,0,0,1-8.966,2.264l-1.091-.652-6.617,6.131.751,1.192a6.518,6.518,0,0,1-2.3,9.164l-1.1.619,2.06,9.087,1.451-.1C934.475,255.75,934.626,255.744,934.779,255.744Zm36.844-8.762a4.977,4.977,0,0,0-4.316,2.5,4.889,4.889,0,0,0-.464,3.762,4.948,4.948,0,1,0,4.779-6.266ZM928.7,235.533a4.979,4.979,0,0,0-4.317,2.5,4.948,4.948,0,0,0,4.291,7.391,4.975,4.975,0,0,0,4.316-2.5,4.882,4.882,0,0,0,.464-3.761,4.94,4.94,0,0,0-4.754-3.63Zm36.776-10.346a4.95,4.95,0,1,0,4.222,2.345A4.923,4.923,0,0,0,965.479,225.187Zm-20.952-5.415a4.951,4.951,0,1,0,4.951,4.951A4.957,4.957,0,0,0,944.527,219.772Z" transform="translate(-922.143 -218.2)" fill="#8303ff"/></svg>