<?xml version="1.0" encoding="UTF-8"?>
<svg xmlns="http://www.w3.org/2000/svg" width="56" height="56" viewBox="0 0 56 56"><path id="language" d="M872.109,383.271a6.019,6.019,0,0,0,8.291-2.108l.631-1.068,7.465,2.327.072,1.084a6.059,6.059,0,0,0,.883,2.79,5.99,5.99,0,0,0,5.062,2.886l1.235.017.881,3.9c.527.072,1.047.157,1.559.264l-1.048-4.643.876-.607a6.093,6.093,0,0,0,1.71-8.2,6.024,6.024,0,0,0-10.3.021l-.638,1.044-7.477-2.328-.085-1.066a6.045,6.045,0,1,0-11.553,2.942l.451,1.029-6.349,5.924-.927-.382a5.932,5.932,0,0,0-2.273-.449,6.081,6.081,0,0,0-3.009,11.35,6.124,6.124,0,0,0,2.395.764l1.125.113,1.989,8.831-.736.619a6.131,6.131,0,0,0-1.264,7.856,6.023,6.023,0,0,0,10.3-.02l.636-1.045,2.274.707a16.159,16.159,0,0,1-.435-1.67l-1.521-.476-.071-1.084a6.094,6.094,0,0,0-.88-2.787,6.025,6.025,0,0,0-5.174-2.885c-.14,0-.281,0-.423.015l-1.341.095-1.9-8.456L863.55,398a6.047,6.047,0,0,0,2.27-2.274,6.111,6.111,0,0,0-.143-6.252l-.694-1.109,6.118-5.705Zm18.025-1.228a4.578,4.578,0,0,1,2.049-2.86,4.564,4.564,0,0,1,6.3,1.493A4.639,4.639,0,0,1,897,387.02a4.563,4.563,0,0,1-6.3-1.494A4.6,4.6,0,0,1,890.134,382.044Zm-26.315,27.044a4.565,4.565,0,0,1,6.3,1.493,4.621,4.621,0,0,1-1.486,6.343,4.566,4.566,0,0,1-6.3-1.494A4.64,4.64,0,0,1,863.819,409.088ZM864.549,395a4.6,4.6,0,0,1-3.991,2.33,4.512,4.512,0,0,1-2.242-.6A4.584,4.584,0,1,1,864.549,395Zm10.663-21.545a4.607,4.607,0,1,1-4.578,4.607A4.6,4.6,0,0,1,875.212,373.456Zm31.935,51.833a18.084,18.084,0,0,1-2.223-3.43,13.556,13.556,0,0,0,.6-21.48,18.684,18.684,0,0,0-23.839,0,13.891,13.891,0,0,0-5,10.492,13.594,13.594,0,0,0,5,10.392,18.38,18.38,0,0,0,11.915,4.182q1.133,0,3.569-.14a17.373,17.373,0,0,0,8.662,2.689,1.864,1.864,0,0,0,1.2-.4,1.488,1.488,0,0,0,.54-1.152,1.886,1.886,0,0,0-.414-1.134Zm-1.042,1.156-.046.03a.549.549,0,0,1-.225.039,16.045,16.045,0,0,1-8.077-2.581.735.735,0,0,0-.443-.118c-1.733.1-2.979.15-3.711.15a16.922,16.922,0,0,1-10.965-3.832,12.1,12.1,0,0,1-4.478-9.261,12.408,12.408,0,0,1,4.486-9.372,17.224,17.224,0,0,1,21.917,0,12.409,12.409,0,0,1,4.484,9.372,12.547,12.547,0,0,1-5.1,9.888c-.1.081-.19.146-.249.188l-.087.064,0,.006a.736.736,0,0,0-.314.6v0a.744.744,0,0,0,.045.243l0,0a17.049,17.049,0,0,0,2.655,4.346.447.447,0,0,1,.112.236Z" transform="translate(-854.517 -371.994)" fill="#8303ff"/></svg>