<?xml version="1.0" encoding="UTF-8"?>
<svg xmlns="http://www.w3.org/2000/svg" width="56" height="56" viewBox="0 0 56 56"><path id="arq-cog" d="M1013.854,273.25a5.263,5.263,0,0,1-5.168-4.271,5.254,5.254,0,0,1,4.186-6.143l.5-.094v-7.188l-.549-.058a10.791,10.791,0,0,1-5.482-2.213l-.421-.328-5.21,5.064.284.425a5.15,5.15,0,0,1-.709,6.579,5.56,5.56,0,0,1-7.7-.006l-.129-.128a5.159,5.159,0,0,1,.127-7.3,5.567,5.567,0,0,1,6.821-.694l.408.257,5.212-5.066-.361-.436a10.135,10.135,0,0,1-2.271-5.312l-.063-.543h-8.884l-.128.443a3.77,3.77,0,0,1-2.589,2.585,3.844,3.844,0,0,1-1.053.148,3.8,3.8,0,0,1-3.639-2.734,3.78,3.78,0,0,1,2.589-4.68,3.784,3.784,0,0,1,4.691,2.584l.128.443h8.885l.063-.544a10.132,10.132,0,0,1,2.27-5.311l.361-.436-5.213-5.069-.41.259a5.568,5.568,0,0,1-6.817-.692l-.131-.131a5.159,5.159,0,0,1,.129-7.3,5.557,5.557,0,0,1,7.7,0,5.137,5.137,0,0,1,.707,6.58l-.285.424,5.21,5.066.421-.328a10.8,10.8,0,0,1,5.483-2.214l.549-.058v-7.183l-.5-.1a5.341,5.341,0,0,1-4.3-5.156,5.406,5.406,0,0,1,5.179-5.132c.087,0,.173-.006.26-.006a5.424,5.424,0,0,1,5.428,5.174,5.333,5.333,0,0,1-4.3,5.122l-.495.1v7.183l.548.058a10.8,10.8,0,0,1,5.484,2.214l.421.328,6.008-5.84-.25-.417a4.055,4.055,0,0,1,.671-5.041,4.409,4.409,0,0,1,6.113,0l.093.093a4.089,4.089,0,0,1-.094,5.8,4.327,4.327,0,0,1-3.03,1.229,4.446,4.446,0,0,1-2.205-.571l-.4-.227-6.012,5.846.362.436a10.135,10.135,0,0,1,2.27,5.312l.063.543h7.335l.11-.476a5.376,5.376,0,0,1,5.105-4.184h.214a5.405,5.405,0,0,1,.985,10.725,5.508,5.508,0,0,1-.976.088,5.408,5.408,0,0,1-5.323-4.439l-.091-.5h-7.36l-.063.543a10.134,10.134,0,0,1-2.27,5.312l-.362.436,5.212,5.067.408-.257a5.564,5.564,0,0,1,6.821.7l.127.126a5.159,5.159,0,0,1-.127,7.3,5.558,5.558,0,0,1-7.7,0,5.15,5.15,0,0,1-.71-6.581l.284-.425-5.21-5.063-.421.327a10.784,10.784,0,0,1-5.481,2.213l-.548.058v7.189l.5.093a5.252,5.252,0,0,1-.969,10.416Zm.037-9.319a4.149,4.149,0,0,0,.115,8.3l.115,0a4.154,4.154,0,0,0,4.01-3.632h.04l-.007-.621a4.125,4.125,0,0,0-4.109-4.044h0Zm16.71,1.431a4.159,4.159,0,0,0,2.915-1.181l.106-.105a3.986,3.986,0,0,0-.108-5.646,4.228,4.228,0,0,0-5.746-.1,1.021,1.021,0,0,0-.349.258,3.881,3.881,0,0,0-1.052,2.806,4.01,4.01,0,0,0,1.3,2.8,4.154,4.154,0,0,0,2.906,1.171h.03Zm-33.152,0a4.16,4.16,0,0,0,2.915-1.181c.03-.029.068-.067.106-.106a3.992,3.992,0,0,0-.108-5.644,4.224,4.224,0,0,0-5.856,0l-.108.106a3.987,3.987,0,0,0,.108,5.647,4.158,4.158,0,0,0,2.913,1.179h.03Zm16.78-29.337a9.164,9.164,0,0,0-.235,18.325h.12a9.334,9.334,0,0,0,9.3-9.152,9.124,9.124,0,0,0-8.939-9.17Zm23.313,5.107a4.057,4.057,0,0,0-.106,8.113h0a4.14,4.14,0,0,0,4.17-4.047,4.04,4.04,0,0,0-3.956-4.064Zm-46.923,1.488a2.569,2.569,0,0,0-.066,5.138h0a2.618,2.618,0,0,0,2.64-2.56,2.56,2.56,0,0,0-2.506-2.577Zm6.814-17.605a4.2,4.2,0,0,0-2.928,1.179l-.107.106a3.986,3.986,0,0,0,.107,5.647,4.222,4.222,0,0,0,5.857,0l.107-.106a3.989,3.989,0,0,0-.108-5.646A4.2,4.2,0,0,0,997.432,225.014Zm33.164,7.021a3.034,3.034,0,0,0,2.125-.862,2.952,2.952,0,0,0,.893-2.152,2.9,2.9,0,0,0-.9-2.054,3.08,3.08,0,0,0-4.271,0l-.075.074a2.918,2.918,0,0,0,.075,4.135,3.039,3.039,0,0,0,2.126.86h.021Zm-16.59-13.642a4.142,4.142,0,0,0-4.151,3.976,4.186,4.186,0,0,0,3.98,4.023l.175,0a4.141,4.141,0,0,0,4.149-3.976,4.184,4.184,0,0,0-3.978-4.023Z" transform="translate(-986.888 -217.25)" fill="#8303ff"/></svg>