<svg xmlns="http://www.w3.org/2000/svg" width="271.589" height="112" viewBox="0 0 271.589 112">
  <g id="logohub-en" transform="translate(-285 -226)">
    <line id="Linha_35" data-name="Linha 35" y2="32.433" transform="translate(436.3 305.567)" fill="none" stroke="#7d7c7b" stroke-width="4"/>
    <text id="Hub_for_Artificial_Intelligence_and_Cognitive_Architectures" data-name="Hub for Artificial Intelligence and Cognitive Architectures" transform="translate(444.589 315.222)" fill="#7d7c7b" font-size="8" font-family="SKODANext-Bold, SKODA Next" font-weight="700"><tspan x="0" y="0">HUB FOR ARTIFICIAL</tspan><tspan x="0" y="10">INTELLIGENCE AND</tspan><tspan x="0" y="20">COGNITIVE ARCHITECTURES</tspan></text>
    <path id="Caminho_345" data-name="Caminho 345" d="M401.07,228.641q10.263,10.557,20.554,21.086a4.176,4.176,0,0,0,6.76-1.878c1.1-4.739,2.037-9.515,3.146-14.25.424-1.813-.284-2.5-1.951-2.907q-7.67-1.854-15.29-3.906a17.536,17.536,0,0,0-5.952-.751c-2.16.152-4.321.3-6.48.461-.6.046-1.357-.08-1.618.628S400.66,228.22,401.07,228.641Z" transform="translate(-74.455)" fill="#7d7c7b"/>
    <path id="Caminho_346" data-name="Caminho 346" d="M316.309,324.015c.6-.035,1.39.072,1.6-.637.231-.77-.567-1-1.073-1.291Q303.6,314.436,290.355,306.8c-1.431-.829-2.236-.66-2.6,1.087-.839,4-1.751,7.983-2.667,11.966a4.683,4.683,0,0,0,.442,2.881,4.074,4.074,0,0,0,5.192,2.764C299.813,324.971,308.061,324.5,316.309,324.015Z" transform="translate(0 -51.919)" fill="#7d7c7b"/>
    <path id="Caminho_347" data-name="Caminho 347" d="M442.45,338.878a4.269,4.269,0,0,1-2.11-.891,2.652,2.652,0,0,0-3.03-.053,74.838,74.838,0,0,1-7.2,3.743c-2.7,1.118-4.214,2.717-3.561,5.258-.23,1.685.176,2.624,1.118,3.348q5.609,4.309,11.21,8.628c1.182.91,2.005.707,2.786-.625,2.031-3.465,4.177-6.863,6.264-10.3a2.612,2.612,0,0,0,.551-2.4C447.261,342.667,447.043,338.858,442.45,338.878Z" transform="translate(-91.402 -72.067)" fill="#7d7c7b"/>
    <path id="Caminho_348" data-name="Caminho 348" d="M330.722,370.257c-1.835-1.814-3.172-3.094-5.312-2.578-3.513.159-6.6.309-9.693.436-4.327.179-8.655.322-12.981.516-2.095.094-2.371.582-1.37,2.359.72,1.278,1.568,2.486,2.255,3.781a2.9,2.9,0,0,0,3.425,1.617c4.746-.665,9.516-1.158,14.277-1.716a2.927,2.927,0,0,1,3.518,2.235c.652,1.977,1.487,3.9,2.295,5.818.283.674.319,1.707,1.27,1.754,1.052.052.977-1.026,1.233-1.7.689-1.8,1.23-3.669,2.013-5.428C332.807,374.759,333.275,372.779,330.722,370.257Z" transform="translate(-10.218 -91.51)" fill="#7d7c7b"/>
    <path id="Caminho_349" data-name="Caminho 349" d="M339.074,305.991c-.516-2.094-1.154-4.158-1.674-6.252a2.273,2.273,0,0,0-2.158-2.011,8.737,8.737,0,0,1-7.365-5.247c-.428-.906-.948-1.607-2.112-1.45q-6.949,1.267-13.9,2.538c-.456.084-.99.2-1.074.725s.4.794.792,1.027c1.2.7,2.4,1.4,3.608,2.084,6.7,3.83,13.406,7.644,20.089,11.5a2.833,2.833,0,0,0,3.427.025C339.923,308.052,339.318,306.983,339.074,305.991Z" transform="translate(-16.669 -42.023)" fill="#7d7c7b"/>
    <path id="Caminho_350" data-name="Caminho 350" d="M310.315,252.52c4.19-.727,8.359-1.579,12.552-2.293a4.624,4.624,0,0,0,3.81-2.569A6.419,6.419,0,0,1,330,244.55a2.462,2.462,0,0,0,1.616-2.081c.3-2.217.625-4.43.86-6.074.052-2.673-.312-2.922-2.278-1.992-3.844,1.818-7.664,3.685-11.5,5.515a8.774,8.774,0,0,0-3.046,2.428c-2.208,2.682-4.506,5.291-6.739,7.952-.516.615-1.639,1.165-1.14,2.059C308.341,253.375,309.474,252.666,310.315,252.52Z" transform="translate(-14.64 -5.115)" fill="#7d7c7b"/>
    <path id="Caminho_351" data-name="Caminho 351" d="M508.19,299.818c-3.272,1.4-6.494,2.922-9.775,4.3a3.375,3.375,0,0,0-2.375,3.32,4.022,4.022,0,0,1-1.249,3.162c-2.434,1.834-1.494,3.8-.689,5.956.653,1.748,1.536,2.266,3.325,1.529q4.613-1.9,9.335-3.536a3.308,3.308,0,0,0,2.562-3.14c.274-3.385.675-6.76,1.082-10.708C510.484,299.383,510.023,299.034,508.19,299.818Z" transform="translate(-134.606 -47.45)" fill="#7d7c7b"/>
    <path id="Caminho_352" data-name="Caminho 352" d="M415.111,309.408a1.721,1.721,0,0,0,1.138-2.012,2.475,2.475,0,0,0-1.847-2.367q-7.248-2.75-14.455-5.6a3.043,3.043,0,0,0-3.546.682,2.785,2.785,0,0,0-.779,3.3c.432,1.478.91,2.953,1.192,4.463.506,2.709,1.242,5.1,4.615,5.361a3.118,3.118,0,0,1,1.6.881,2.427,2.427,0,0,0,3.163.2C409.148,312.649,412.133,311.034,415.111,309.408Z" transform="translate(-71.366 -47.273)" fill="#7d7c7b"/>
    <path id="Caminho_353" data-name="Caminho 353" d="M494.23,269.558c3.785-1.554,7.518-3.232,11.274-4.857,1.075-.465,1.19-1.1.381-1.935q-5.4-5.555-10.808-11.108c-.781-.8-1.666-1.173-2.028.276-1.175,4.71-2.251,9.445-3.3,13.886C489.722,267.955,492.58,270.235,494.23,269.558Z" transform="translate(-132.354 -16.13)" fill="#7d7c7b"/>
    <path id="Caminho_354" data-name="Caminho 354" d="M388.315,247.4a8.714,8.714,0,0,1,4.985,6.827,2.877,2.877,0,0,0,2.157,2.412c4.35,1.618,8.679,3.295,13.031,4.909.666.247,1.6.962,2.072.125.444-.783-.622-1.285-1.125-1.809q-9.712-10.121-19.458-20.21a2.241,2.241,0,0,0-1.344-.906c-.772,0-1.012.606-1.1,1.219-.248,1.757-.437,3.522-.629,5.286A2.029,2.029,0,0,0,388.315,247.4Z" transform="translate(-65.864 -8.244)" fill="#7d7c7b"/>
    <path id="Caminho_355" data-name="Caminho 355" d="M467.894,299.947a6.118,6.118,0,0,0-6.108,6.251,6.028,6.028,0,0,0,6.235,6.1,6.293,6.293,0,0,0,6.214-6.223C474.294,302.9,471.231,299.944,467.894,299.947Z" transform="translate(-114.279 -47.801)" fill="#ff9d1c"/>
    <path id="Caminho_356" data-name="Caminho 356" d="M393.26,355.02a6.06,6.06,0,1,0-6.13-5.966A5.979,5.979,0,0,0,393.26,355.02Z" transform="translate(-66.019 -75.57)" fill="#ff9d1c"/>
    <path id="Caminho_357" data-name="Caminho 357" d="M407.958,387.305c-2.437-1.889-4.854-3.808-7.361-5.6-1.283-.917-6.561.66-7.152,2.168-1.516,3.871-2.887,7.8-4.3,11.711-.151.417-.334.952.207,1.221.5.248.887-.135,1.2-.47.942-1.018,1.922-2.009,2.769-3.1,2.445-3.155,5.388-5.042,9.577-4.045,1.466,0,2.933.013,4.4-.007.532-.007,1.184.021,1.405-.572C408.93,387.993,408.368,387.623,407.958,387.305Z" transform="translate(-67.221 -100.477)" fill="#7d7c7b"/>
    <path id="Caminho_358" data-name="Caminho 358" d="M363.7,273.074a6.244,6.244,0,0,0,6.241,6.12,5.942,5.942,0,0,0,6.194-6.042,6.048,6.048,0,0,0-5.975-6.075C366.76,267.1,363.717,269.929,363.7,273.074Z" transform="translate(-50.872 -26.554)" fill="#ff9d1c"/>
    <path id="Caminho_359" data-name="Caminho 359" d="M304.552,454.488h6.46v30.119h-6.46V472.328H291.46v12.279H285V454.488h6.46v11.936h13.091Z" transform="translate(0 -147.7)" fill="#ff9d1c"/>
    <path id="Caminho_360" data-name="Caminho 360" d="M503,484.182a14.5,14.5,0,0,1-7.722-2.054,13.937,13.937,0,0,1-5.2-5.626,16.983,16.983,0,0,1-1.84-7.894,16.788,16.788,0,0,1,1.861-7.915,14.028,14.028,0,0,1,5.262-5.6,14.725,14.725,0,0,1,7.765-2.054,15.732,15.732,0,0,1,6.824,1.412,13.229,13.229,0,0,1,4.856,3.829,14.684,14.684,0,0,1,2.653,5.369l-6.5.727a8.868,8.868,0,0,0-2.93-3.808,7.707,7.707,0,0,0-4.77-1.5,7.8,7.8,0,0,0-4.428,1.241,7.94,7.94,0,0,0-2.845,3.4,11.693,11.693,0,0,0-.984,4.9,11.917,11.917,0,0,0,.963,4.9,7.749,7.749,0,0,0,2.845,3.4,7.9,7.9,0,0,0,4.449,1.241A7.7,7.7,0,0,0,511,472.8l6.417.685a14.3,14.3,0,0,1-2.588,5.412,13.16,13.16,0,0,1-4.877,3.85A16.023,16.023,0,0,1,503,484.182Zm-34.141-11h9.027l-4.492-10.7Zm13.434,10.482-2.139-5.134H466.633l-2.182,5.134H457.82l13.22-30.119h5.091l13.091,30.119Zm-42.44-10.482h9.027l-4.492-10.7Zm13.434,10.482-2.139-5.134H437.626l-2.182,5.134h-6.631l13.22-30.119h5.091l13.091,30.119Zm-33.285,0V453.549h6.46v30.119Z" transform="translate(-87.267 -146.762)" fill="#7d7c7b"/>
    <path id="Caminho_361" data-name="Caminho 361" d="M382.57,519.136a3.806,3.806,0,1,1-.743.073A3.8,3.8,0,0,1,382.57,519.136Z" transform="translate(-60.611 -189.49)" fill="#ff9d1c"/>
  </g>
</svg>